<mxfile host="65bd71144e">
    <diagram id="vC2UGVJM11Pgb3OtcGuh" name="Page-1">
        <mxGraphModel dx="800" dy="575" grid="1" gridSize="10" guides="1" tooltips="1" connect="1" arrows="1" fold="1" page="1" pageScale="1" pageWidth="850" pageHeight="1100" math="0" shadow="0">
            <root>
                <mxCell id="0"/>
                <mxCell id="1" parent="0"/>
                <mxCell id="16" value="" style="edgeStyle=none;html=1;" parent="1" source="2" target="15" edge="1">
                    <mxGeometry relative="1" as="geometry"/>
                </mxCell>
                <mxCell id="2" value="App&lt;br&gt;state: darkMode&lt;br&gt;state: projects&lt;br&gt;state: projectToEdit&lt;br&gt;cb: addProject&lt;br&gt;cb: deleteProject&lt;br&gt;cb: updateProject&lt;br&gt;cb: updateProjectToEdit&lt;br&gt;&lt;i&gt;GET: &lt;/i&gt;setProjects" style="whiteSpace=wrap;html=1;" parent="1" vertex="1">
                    <mxGeometry x="305" width="190" height="140" as="geometry"/>
                </mxCell>
                <mxCell id="3" value="" style="edgeStyle=none;orthogonalLoop=1;jettySize=auto;html=1;exitX=0.25;exitY=1;exitDx=0;exitDy=0;entryX=0.75;entryY=0;entryDx=0;entryDy=0;" parent="1" target="4" edge="1">
                    <mxGeometry width="100" relative="1" as="geometry">
                        <mxPoint x="305" y="29.999999999999943" as="sourcePoint"/>
                        <mxPoint x="272.5" y="130" as="targetPoint"/>
                        <Array as="points"/>
                    </mxGeometry>
                </mxCell>
                <mxCell id="4" value="Header" style="whiteSpace=wrap;html=1;" parent="1" vertex="1">
                    <mxGeometry x="122.5" y="120" width="120" height="60" as="geometry"/>
                </mxCell>
                <mxCell id="5" value="" style="edgeStyle=none;orthogonalLoop=1;jettySize=auto;html=1;exitX=0.5;exitY=1;exitDx=0;exitDy=0;entryX=0.5;entryY=0;entryDx=0;entryDy=0;" parent="1" target="7" edge="1">
                    <mxGeometry width="100" relative="1" as="geometry">
                        <mxPoint x="325" y="139.99999999999994" as="sourcePoint"/>
                        <mxPoint x="310" y="290" as="targetPoint"/>
                        <Array as="points"/>
                    </mxGeometry>
                </mxCell>
                <mxCell id="7" value="ProjectList&lt;br&gt;state: phaseState&lt;br&gt;state: searchQuery" style="whiteSpace=wrap;html=1;" parent="1" vertex="1">
                    <mxGeometry x="260" y="320" width="120" height="60" as="geometry"/>
                </mxCell>
                <mxCell id="8" value="" style="edgeStyle=none;orthogonalLoop=1;jettySize=auto;html=1;exitX=1;exitY=0.5;exitDx=0;exitDy=0;" parent="1" target="9" edge="1">
                    <mxGeometry width="100" relative="1" as="geometry">
                        <mxPoint x="400" y="139.99999999999994" as="sourcePoint"/>
                        <mxPoint x="400" y="160" as="targetPoint"/>
                        <Array as="points"/>
                    </mxGeometry>
                </mxCell>
                <mxCell id="9" value="ProjectForm&lt;br&gt;&lt;i&gt;POST: &lt;/i&gt;addProject" style="whiteSpace=wrap;html=1;" parent="1" vertex="1">
                    <mxGeometry x="340" y="230" width="120" height="60" as="geometry"/>
                </mxCell>
                <mxCell id="10" value="props: projects&amp;nbsp; [ { ... }, ... ],&lt;br&gt;updateProjectToEdit,&lt;br&gt;deleteProject" style="text;html=1;align=center;verticalAlign=middle;resizable=0;points=[];autosize=1;strokeColor=none;fillColor=none;" parent="1" vertex="1">
                    <mxGeometry x="160" y="230" width="170" height="60" as="geometry"/>
                </mxCell>
                <mxCell id="11" value="" style="edgeStyle=none;orthogonalLoop=1;jettySize=auto;html=1;exitX=0.5;exitY=1;exitDx=0;exitDy=0;entryX=0.5;entryY=0;entryDx=0;entryDy=0;" parent="1" source="7" target="12" edge="1">
                    <mxGeometry width="100" relative="1" as="geometry">
                        <mxPoint x="340" y="410" as="sourcePoint"/>
                        <mxPoint x="410" y="470" as="targetPoint"/>
                        <Array as="points"/>
                    </mxGeometry>
                </mxCell>
                <mxCell id="12" value="ProjectListItem&lt;br&gt;state: projectClaps&lt;i&gt;&lt;br&gt;clickEdit: &lt;/i&gt;updateProjectEditForm&lt;br&gt;&lt;i&gt;clickDelete: &lt;/i&gt;DELETE, deleteProject" style="whiteSpace=wrap;html=1;" parent="1" vertex="1">
                    <mxGeometry x="200" y="470" width="240" height="80" as="geometry"/>
                </mxCell>
                <mxCell id="13" value="props: project { ... }, &lt;br&gt;updateProjectToEdit,&lt;br&gt;deleteProject" style="text;html=1;align=center;verticalAlign=middle;resizable=0;points=[];autosize=1;strokeColor=none;fillColor=none;" parent="1" vertex="1">
                    <mxGeometry x="200" y="400" width="130" height="60" as="geometry"/>
                </mxCell>
                <mxCell id="14" value="props: addProject" style="text;html=1;align=center;verticalAlign=middle;resizable=0;points=[];autosize=1;strokeColor=none;fillColor=none;" parent="1" vertex="1">
                    <mxGeometry x="390" y="160" width="120" height="30" as="geometry"/>
                </mxCell>
                <mxCell id="15" value="ProjectEditForm&lt;br&gt;state: form&lt;br&gt;&lt;i&gt;PATCH: &lt;/i&gt;updateProjects" style="whiteSpace=wrap;html=1;" parent="1" vertex="1">
                    <mxGeometry x="640" y="180" width="120" height="60" as="geometry"/>
                </mxCell>
                <mxCell id="19" value="props: projectToEdit, updateProjects" style="text;html=1;align=center;verticalAlign=middle;resizable=0;points=[];autosize=1;strokeColor=none;fillColor=none;" parent="1" vertex="1">
                    <mxGeometry x="530" y="120" width="220" height="30" as="geometry"/>
                </mxCell>
                <mxCell id="20" value="" style="edgeStyle=dotted;orthogonalLoop=1;jettySize=auto;html=1;entryX=0.953;entryY=1.021;entryDx=0;entryDy=0;entryPerimeter=0;exitX=1.004;exitY=0.863;exitDx=0;exitDy=0;exitPerimeter=0;" edge="1" parent="1" source="12" target="2">
                    <mxGeometry width="100" relative="1" as="geometry">
                        <mxPoint x="440" y="500" as="sourcePoint"/>
                        <mxPoint x="540" y="500" as="targetPoint"/>
                        <Array as="points">
                            <mxPoint x="730" y="400"/>
                        </Array>
                    </mxGeometry>
                </mxCell>
                <mxCell id="21" value="deleteProject will send up project.id so App has info on what to filter out" style="text;html=1;align=center;verticalAlign=middle;resizable=0;points=[];autosize=1;strokeColor=none;fillColor=none;" vertex="1" parent="1">
                    <mxGeometry x="490" y="510" width="400" height="30" as="geometry"/>
                </mxCell>
            </root>
        </mxGraphModel>
    </diagram>
</mxfile>